<?xml version="1.0" encoding="utf-8"?>
<!-- Generator: Adobe Illustrator 22.0.1, SVG Export Plug-In . SVG Version: 6.00 Build 0)  -->
<svg version="1.1" id="Capa_1" xmlns="http://www.w3.org/2000/svg" xmlns:xlink="http://www.w3.org/1999/xlink" x="0px" y="0px"
	 viewBox="0 0 900 600" style="enable-background:new 0 0 900 600;" xml:space="preserve">
<style type="text/css">
	.st0{fill-rule:evenodd;clip-rule:evenodd;fill:#FFFFFF;stroke:#000000;stroke-miterlimit:10;}
	.st1{fill-rule:evenodd;clip-rule:evenodd;fill:#115868;}
	.st2{fill-rule:evenodd;clip-rule:evenodd;fill:#115868;stroke:#000000;stroke-miterlimit:10;}
</style>
<g>
	<path class="st0" d="M382.5,226.5v149c0,0,1,5,10,9h113c0,0,9,0,12-11v-87l-71-72h-54C392.5,214.5,383.5,215.5,382.5,226.5z"/>
	<g>
		<rect x="397" y="250" class="st1" width="53" height="13"/>
		<path d="M449.5,250.5v12h-52v-12H449.5 M450.5,249.5h-54v14h54V249.5L450.5,249.5z"/>
	</g>
	<g>
		<rect x="397.5" y="277.5" class="st1" width="81" height="13"/>
		<path d="M478,278v12h-80v-12H478 M479,277h-82v14h82V277L479,277z"/>
	</g>
	<g>
		<rect x="397.5" y="305.5" class="st1" width="81" height="13"/>
		<path d="M478,306v12h-80v-12H478 M479,305h-82v14h82V305L479,305z"/>
	</g>
	<g>
		<rect x="397.5" y="333.5" class="st1" width="81" height="13"/>
		<path d="M478,334v12h-80v-12H478 M479,333h-82v14h82V333L479,333z"/>
	</g>
	<polygon class="st2" points="465.5,245.5 465.5,266.5 487.5,266.5 	"/>
</g>
</svg>
